<svg width="200" height="191" viewBox="0 0 200 191" fill="none" xmlns="http://www.w3.org/2000/svg">
<ellipse cx="100" cy="95.4545" rx="100" ry="95.4545" fill="white"/>
<path d="M24.9023 81.3C24.469 81.3 24.0857 81.15 23.7523 80.85C23.4523 80.5167 23.3023 80.1333 23.3023 79.7V49.45C23.3023 48.8167 23.3857 48.35 23.5523 48.05C23.7523 47.75 24.119 47.55 24.6523 47.45C25.1857 47.35 26.0523 47.3 27.2523 47.3H28.7023C34.3357 47.3 38.669 48.2 41.7023 50C44.7357 51.8 46.2523 54.35 46.2523 57.65C46.2523 62.05 43.2357 65.3167 37.2023 67.45C38.769 68.45 40.4857 69.9333 42.3523 71.9C44.2523 73.8333 45.9023 76.2 47.3023 79C47.4357 79.1667 47.5023 79.4 47.5023 79.7C47.5023 80.1333 47.3523 80.5167 47.0523 80.85C46.7523 81.15 46.369 81.3 45.9023 81.3C45.3357 81.3 44.869 81 44.5023 80.4C39.8357 72.7 35.3523 68.85 31.0523 68.85C29.9523 68.85 28.419 69 26.4523 69.3V79.7C26.4523 80.1333 26.3023 80.5167 26.0023 80.85C25.7023 81.15 25.3357 81.3 24.9023 81.3ZM26.4523 66.2C29.0523 66.1333 31.619 65.8 34.1523 65.2C36.719 64.5667 38.8523 63.6167 40.5523 62.35C42.2523 61.0833 43.1023 59.5167 43.1023 57.65C43.1023 55.2833 41.8357 53.4833 39.3023 52.25C36.769 51.0167 33.1857 50.4 28.5523 50.4C27.619 50.4 26.919 50.4167 26.4523 50.45V66.2ZM54.7875 52.4C54.3542 52.4 53.9875 52.25 53.6875 51.95C53.3875 51.65 53.2375 51.2833 53.2375 50.85L53.2875 48.8C53.2875 48.4 53.4542 48.05 53.7875 47.75C54.1208 47.45 54.4875 47.3 54.8875 47.3C55.2875 47.3 55.6375 47.4667 55.9375 47.8C56.2375 48.1 56.3875 48.45 56.3875 48.85L56.3375 50.9C56.3375 51.3333 56.1708 51.7 55.8375 52C55.5375 52.2667 55.1875 52.4 54.7875 52.4ZM54.4875 81.3C54.0542 81.3 53.6708 81.15 53.3375 80.85C53.0042 80.5167 52.8375 80.1333 52.8375 79.7L53.1375 58C53.1375 57.5667 53.3042 57.1833 53.6375 56.85C53.9708 56.5167 54.3542 56.35 54.7875 56.35C55.2208 56.35 55.5875 56.5167 55.8875 56.85C56.2208 57.15 56.3875 57.5333 56.3875 58L56.0875 79.7C56.0875 80.1333 55.9208 80.5167 55.5875 80.85C55.2875 81.15 54.9208 81.3 54.4875 81.3ZM73.4656 81.3C71.5323 81.3 69.7156 80.8333 68.0156 79.9C66.349 78.9333 65.0156 77.6167 64.0156 75.95C63.049 74.2833 62.5656 72.45 62.5656 70.45C62.5656 68.1833 63.0823 65.9667 64.1156 63.8C65.1823 61.6 66.5823 59.8167 68.3156 58.45C70.049 57.05 71.849 56.35 73.7156 56.35C75.449 56.35 76.8656 56.6333 77.9656 57.2C79.099 57.7667 80.1823 58.65 81.2156 59.85C81.4823 60.1167 81.6156 60.4667 81.6156 60.9C81.6156 61.3333 81.4656 61.7 81.1656 62C80.899 62.3 80.549 62.45 80.1156 62.45C79.649 62.45 79.2656 62.2667 78.9656 61.9C78.2323 61.0333 77.4823 60.3833 76.7156 59.95C75.949 59.4833 74.9823 59.25 73.8156 59.25C72.4823 59.25 71.1823 59.7833 69.9156 60.85C68.649 61.9167 67.6156 63.3167 66.8156 65.05C66.0156 66.75 65.6156 68.5167 65.6156 70.35C65.6156 72.0167 65.999 73.4667 66.7656 74.7C67.5656 75.9 68.5656 76.8167 69.7656 77.45C70.999 78.0833 72.2323 78.4 73.4656 78.4C76.3323 78.4 78.5656 77.25 80.1656 74.95C80.599 74.35 81.0656 74.05 81.5656 74.05C81.999 74.05 82.3656 74.2 82.6656 74.5C82.9656 74.8 83.1156 75.15 83.1156 75.55C83.1156 75.8833 82.949 76.2667 82.6156 76.7C81.749 77.9667 80.499 79.05 78.8656 79.95C77.2323 80.85 75.4323 81.3 73.4656 81.3ZM89.8867 81.35C89.4534 81.35 89.0701 81.2 88.7367 80.9C88.4367 80.5667 88.2867 80.2 88.2867 79.8V48.55C88.2867 48.1167 88.4367 47.75 88.7367 47.45C89.0701 47.1167 89.4534 46.95 89.8867 46.95C90.3534 46.95 90.7201 47.1167 90.9867 47.45C91.2867 47.75 91.4367 48.1167 91.4367 48.55V63.9C92.4367 61.8333 93.8201 60.0333 95.5867 58.5C97.3867 56.9667 99.2201 56.2 101.087 56.2C103.553 56.2 105.287 57.5667 106.287 60.3C107.287 63.0333 107.787 67.3167 107.787 73.15C107.787 76.45 107.737 78.6667 107.637 79.8C107.603 80.2333 107.453 80.6 107.187 80.9C106.92 81.1667 106.57 81.3 106.137 81.3C105.737 81.3 105.37 81.15 105.037 80.85C104.737 80.55 104.587 80.2 104.587 79.8C104.587 79.3 104.603 78.8333 104.637 78.4L104.687 73.5C104.687 67.8667 104.32 64.1 103.587 62.2C102.853 60.2667 101.937 59.3 100.837 59.3C99.6034 59.3 98.3867 59.8167 97.1867 60.85C95.9867 61.85 94.9367 62.9833 94.0367 64.25C93.1701 65.4833 92.5534 66.5 92.1867 67.3C91.6867 68.3 91.4367 69.7333 91.4367 71.6V79.7C91.4367 80.2 91.2867 80.6 90.9867 80.9C90.6867 81.2 90.3201 81.35 89.8867 81.35ZM131.543 81.7C131.043 81.7 130.66 81.5333 130.393 81.2C130.127 80.9 129.993 80.5167 129.993 80.05V78.65C129.093 79.45 128.01 80.1 126.743 80.6C125.477 81.0667 124.21 81.3 122.943 81.3C121.143 81.3 119.527 80.85 118.093 79.95C116.66 79.05 115.527 77.7833 114.693 76.15C113.893 74.4833 113.493 72.6 113.493 70.5C113.493 68.2333 113.96 66.0167 114.893 63.85C115.86 61.65 117.243 59.85 119.043 58.45C120.877 57.05 123.027 56.35 125.493 56.35C127.027 56.35 128.377 56.55 129.543 56.95C130.71 57.35 131.893 57.8333 133.093 58.4V80.05C133.093 80.5167 132.943 80.9 132.643 81.2C132.343 81.5333 131.977 81.7 131.543 81.7ZM122.943 78.35C124.243 78.35 125.543 78.05 126.843 77.45C128.143 76.8167 129.143 76.15 129.843 75.45L130.043 60.3C129.51 60.0667 128.81 59.85 127.943 59.65C127.11 59.4167 126.327 59.3 125.593 59.3C123.96 59.3 122.46 59.7833 121.093 60.75C119.727 61.7167 118.643 63.05 117.843 64.75C117.077 66.4167 116.693 68.3 116.693 70.4C116.693 72.8333 117.277 74.7667 118.443 76.2C119.61 77.6333 121.11 78.35 122.943 78.35ZM142.475 81.3C142.075 81.3 141.708 81.15 141.375 80.85C141.041 80.55 140.875 80.2167 140.875 79.85V57.85C140.875 57.4167 141.025 57.0667 141.325 56.8C141.658 56.5 142.041 56.35 142.475 56.35C142.941 56.35 143.325 56.5 143.625 56.8C143.925 57.0667 144.075 57.4167 144.075 57.85V62.1C145.008 60.4667 146.158 59.0833 147.525 57.95C148.925 56.7833 150.558 56.2 152.425 56.2C153.891 56.2 154.941 56.6167 155.575 57.45C156.241 58.25 156.575 59.2167 156.575 60.35V61.95C156.575 62.3833 156.425 62.75 156.125 63.05C155.825 63.3167 155.458 63.45 155.025 63.45C154.525 63.45 154.158 63.3 153.925 63C153.691 62.7 153.575 62.3333 153.575 61.9V60.75C153.575 59.7833 153.008 59.3 151.875 59.3C149.908 59.3 147.875 60.7 145.775 63.5C145.275 64.1667 144.858 65 144.525 66C144.225 67 144.075 67.9333 144.075 68.8L144.025 79.85C144.025 80.2167 143.858 80.55 143.525 80.85C143.225 81.15 142.875 81.3 142.475 81.3ZM166.334 81.3C164.701 81.3 163.217 80.85 161.884 79.95C160.584 79.05 159.551 77.75 158.784 76.05C158.017 74.3167 157.634 72.3 157.634 70C157.634 65.7333 158.584 62.4 160.484 60C162.384 57.6 165.001 56.4 168.334 56.4C170.567 56.4 172.784 56.9833 174.984 58.15L175.234 48.2C175.234 47.7667 175.401 47.4 175.734 47.1C176.067 46.7667 176.451 46.6 176.884 46.6C177.284 46.6 177.634 46.7667 177.934 47.1C178.267 47.4333 178.434 47.8167 178.434 48.25L177.684 79.8C177.684 80.2333 177.517 80.6 177.184 80.9C176.884 81.1667 176.517 81.3 176.084 81.3C175.617 81.3 175.234 81.1333 174.934 80.8C174.634 80.4333 174.501 80.0167 174.534 79.55L174.584 77.5C171.984 80.0333 169.234 81.3 166.334 81.3ZM166.384 78.35C167.917 78.35 169.317 78.0333 170.584 77.4C171.851 76.7667 172.834 76.0167 173.534 75.15C174.267 74.25 174.651 73.4667 174.684 72.8L174.934 61.25C174.201 60.8167 173.234 60.4 172.034 60C170.867 59.6 169.684 59.4 168.484 59.4C165.917 59.4 163.984 60.3167 162.684 62.15C161.384 63.9833 160.734 66.55 160.734 69.85C160.734 72.5167 161.234 74.6 162.234 76.1C163.267 77.6 164.651 78.35 166.384 78.35ZM34.8367 139.35C34.4701 139.35 34.1534 139.233 33.8867 139L16.6867 125.55V137.7C16.6867 138.133 16.5201 138.517 16.1867 138.85C15.8867 139.15 15.5201 139.3 15.0867 139.3C14.6534 139.3 14.2867 139.15 13.9867 138.85C13.6867 138.517 13.5367 138.133 13.5367 137.7V106.8C13.5367 106.367 13.6867 106 13.9867 105.7C14.2867 105.4 14.6534 105.25 15.0867 105.25C15.5201 105.25 15.8867 105.4 16.1867 105.7C16.5201 106 16.6867 106.367 16.6867 106.8V119.45L32.8367 105.6C33.1701 105.333 33.5201 105.2 33.8867 105.2C34.2867 105.2 34.6367 105.367 34.9367 105.7C35.2367 106.033 35.3867 106.4 35.3867 106.8C35.3867 107.267 35.2201 107.65 34.8867 107.95L17.8367 122.55L35.8367 136.55C36.2034 136.85 36.3867 137.25 36.3867 137.75C36.3867 138.183 36.2367 138.567 35.9367 138.9C35.6367 139.2 35.2701 139.35 34.8367 139.35ZM52.1152 139.3C49.6819 139.3 47.5152 138.767 45.6152 137.7C43.7152 136.6 42.2486 135.133 41.2152 133.3C40.1819 131.467 39.6652 129.467 39.6652 127.3C39.6652 125.033 40.1319 122.917 41.0652 120.95C42.0319 118.95 43.3652 117.35 45.0652 116.15C46.7652 114.95 48.7152 114.35 50.9152 114.35C52.9152 114.35 54.6152 114.733 56.0152 115.5C57.4486 116.267 58.5152 117.183 59.2152 118.25C59.9486 119.317 60.3152 120.267 60.3152 121.1C60.3152 121.7 59.9152 122.233 59.1152 122.7L43.6152 131.55C44.4486 133.15 45.5819 134.367 47.0152 135.2C48.4486 136 50.1319 136.4 52.0652 136.4C53.1319 136.4 54.2486 136.133 55.4152 135.6C56.6152 135.067 57.5652 134.433 58.2652 133.7C58.4986 133.367 58.8319 133.2 59.2652 133.2C59.6986 133.2 60.0486 133.35 60.3152 133.65C60.6152 133.917 60.7652 134.267 60.7652 134.7C60.7652 135.033 60.6319 135.367 60.3652 135.7C59.4652 136.733 58.2319 137.6 56.6652 138.3C55.1319 138.967 53.6152 139.3 52.1152 139.3ZM57.2152 120.7C56.7486 119.567 56.0152 118.717 55.0152 118.15C54.0152 117.583 52.6652 117.3 50.9652 117.3C49.3652 117.3 47.9319 117.75 46.6652 118.65C45.3986 119.517 44.3986 120.7 43.6652 122.2C42.9652 123.7 42.5986 125.35 42.5652 127.15C42.5652 127.817 42.5986 128.35 42.6652 128.75L57.2152 120.7ZM67.9141 139.3C67.4807 139.3 67.0974 139.15 66.7641 138.85C66.4641 138.55 66.3141 138.217 66.3141 137.85V115.8C66.3141 115.367 66.4641 115.017 66.7641 114.75C67.0974 114.45 67.4807 114.3 67.9141 114.3C68.3474 114.3 68.7141 114.45 69.0141 114.75C69.3141 115.017 69.4641 115.367 69.4641 115.8V123.7C70.4307 120.7 71.7641 118.4 73.4641 116.8C75.1974 115.167 77.1474 114.35 79.3141 114.35C81.1474 114.35 82.5974 114.817 83.6641 115.75C84.7307 116.683 85.4974 118.167 85.9641 120.2C86.4307 122.2 86.6641 124.9 86.6641 128.3C86.6641 131.633 86.6474 133.817 86.6141 134.85V137.7C86.6141 138.133 86.4641 138.517 86.1641 138.85C85.8974 139.15 85.5474 139.3 85.1141 139.3C84.7141 139.3 84.3641 139.15 84.0641 138.85C83.7641 138.517 83.6141 138.15 83.6141 137.75V134.95C83.5807 133.917 83.5641 131.767 83.5641 128.5C83.5641 125.4 83.3974 123.05 83.0641 121.45C82.7641 119.85 82.2807 118.767 81.6141 118.2C80.9807 117.6 80.0641 117.3 78.8641 117.3C77.7307 117.3 76.6141 117.717 75.5141 118.55C74.4141 119.383 73.4474 120.567 72.6141 122.1C71.5141 124.1 70.7141 125.983 70.2141 127.75C69.7474 129.517 69.4974 131.333 69.4641 133.2L69.4141 137.65C69.4141 138.117 69.2641 138.517 68.9641 138.85C68.6974 139.15 68.3474 139.3 67.9141 139.3ZM95.5508 139.3C95.1174 139.3 94.7341 139.15 94.4008 138.85C94.1008 138.55 93.9508 138.217 93.9508 137.85V115.8C93.9508 115.367 94.1008 115.017 94.4008 114.75C94.7341 114.45 95.1174 114.3 95.5508 114.3C95.9841 114.3 96.3508 114.45 96.6508 114.75C96.9508 115.017 97.1008 115.367 97.1008 115.8V123.7C98.0674 120.7 99.4008 118.4 101.101 116.8C102.834 115.167 104.784 114.35 106.951 114.35C108.784 114.35 110.234 114.817 111.301 115.75C112.367 116.683 113.134 118.167 113.601 120.2C114.067 122.2 114.301 124.9 114.301 128.3C114.301 131.633 114.284 133.817 114.251 134.85V137.7C114.251 138.133 114.101 138.517 113.801 138.85C113.534 139.15 113.184 139.3 112.751 139.3C112.351 139.3 112.001 139.15 111.701 138.85C111.401 138.517 111.251 138.15 111.251 137.75V134.95C111.217 133.917 111.201 131.767 111.201 128.5C111.201 125.4 111.034 123.05 110.701 121.45C110.401 119.85 109.917 118.767 109.251 118.2C108.617 117.6 107.701 117.3 106.501 117.3C105.367 117.3 104.251 117.717 103.151 118.55C102.051 119.383 101.084 120.567 100.251 122.1C99.1508 124.1 98.3508 125.983 97.8508 127.75C97.3841 129.517 97.1341 131.333 97.1008 133.2L97.0508 137.65C97.0508 138.117 96.9008 138.517 96.6008 138.85C96.3341 139.15 95.9841 139.3 95.5508 139.3ZM132.438 139.3C130.004 139.3 127.838 138.767 125.938 137.7C124.038 136.6 122.571 135.133 121.538 133.3C120.504 131.467 119.988 129.467 119.988 127.3C119.988 125.033 120.454 122.917 121.388 120.95C122.354 118.95 123.688 117.35 125.388 116.15C127.088 114.95 129.038 114.35 131.238 114.35C133.238 114.35 134.938 114.733 136.338 115.5C137.771 116.267 138.838 117.183 139.538 118.25C140.271 119.317 140.638 120.267 140.638 121.1C140.638 121.7 140.238 122.233 139.438 122.7L123.938 131.55C124.771 133.15 125.904 134.367 127.338 135.2C128.771 136 130.454 136.4 132.387 136.4C133.454 136.4 134.571 136.133 135.738 135.6C136.938 135.067 137.888 134.433 138.588 133.7C138.821 133.367 139.154 133.2 139.588 133.2C140.021 133.2 140.371 133.35 140.638 133.65C140.938 133.917 141.088 134.267 141.088 134.7C141.088 135.033 140.954 135.367 140.688 135.7C139.788 136.733 138.554 137.6 136.988 138.3C135.454 138.967 133.938 139.3 132.438 139.3ZM137.538 120.7C137.071 119.567 136.338 118.717 135.338 118.15C134.338 117.583 132.988 117.3 131.288 117.3C129.688 117.3 128.254 117.75 126.988 118.65C125.721 119.517 124.721 120.7 123.988 122.2C123.288 123.7 122.921 125.35 122.888 127.15C122.888 127.817 122.921 128.35 122.988 128.75L137.538 120.7ZM153.736 139.3C152.103 139.3 150.62 138.85 149.286 137.95C147.986 137.05 146.953 135.75 146.186 134.05C145.42 132.317 145.036 130.3 145.036 128C145.036 123.733 145.986 120.4 147.886 118C149.786 115.6 152.403 114.4 155.736 114.4C157.97 114.4 160.186 114.983 162.386 116.15L162.636 106.2C162.636 105.767 162.803 105.4 163.136 105.1C163.47 104.767 163.853 104.6 164.286 104.6C164.686 104.6 165.036 104.767 165.336 105.1C165.67 105.433 165.836 105.817 165.836 106.25L165.086 137.8C165.086 138.233 164.92 138.6 164.586 138.9C164.286 139.167 163.92 139.3 163.486 139.3C163.02 139.3 162.636 139.133 162.336 138.8C162.036 138.433 161.903 138.017 161.936 137.55L161.986 135.5C159.386 138.033 156.636 139.3 153.736 139.3ZM153.786 136.35C155.32 136.35 156.72 136.033 157.986 135.4C159.253 134.767 160.236 134.017 160.936 133.15C161.67 132.25 162.053 131.467 162.086 130.8L162.336 119.25C161.603 118.817 160.636 118.4 159.436 118C158.27 117.6 157.086 117.4 155.886 117.4C153.32 117.4 151.386 118.317 150.086 120.15C148.786 121.983 148.136 124.55 148.136 127.85C148.136 130.517 148.636 132.6 149.636 134.1C150.67 135.6 152.053 136.35 153.786 136.35ZM175.5 149C175.067 149 174.7 148.833 174.4 148.5C174.1 148.2 173.95 147.833 173.95 147.4C173.95 147.167 174.017 146.933 174.15 146.7L179 136.1L169.3 116.75C169.167 116.417 169.1 116.133 169.1 115.9C169.1 115.433 169.25 115.05 169.55 114.75C169.883 114.45 170.267 114.3 170.7 114.3C171.033 114.3 171.333 114.4 171.6 114.6C171.867 114.8 172.067 115.05 172.2 115.35L180.7 132.4L188.55 115.25C188.883 114.583 189.383 114.25 190.05 114.25C190.483 114.25 190.85 114.4 191.15 114.7C191.45 115 191.6 115.367 191.6 115.8C191.6 116.1 191.55 116.333 191.45 116.5L177 148C176.633 148.667 176.133 149 175.5 149Z" fill="#262524"/>
</svg>
